HIERARCHY
ROOT Hips
{
  OFFSET 5.84602e-005 68.8428 3.50346
  CHANNELS 6 Xposition Yposition Zposition Zrotation Xrotation Yrotation
  JOINT Spine
  {
    OFFSET 0 8.597 -4.6522
    CHANNELS 3 Zrotation Xrotation Yrotation
    JOINT Spine1
    {
      OFFSET 0 7.8454 0.4098
      CHANNELS 3 Zrotation Xrotation Yrotation
      JOINT Spine2
      {
        OFFSET 0 9.7078 -2.1609
        CHANNELS 3 Zrotation Xrotation Yrotation
        JOINT Neck
        {
          OFFSET 0 21.8761 -0.4549
          CHANNELS 3 Zrotation Xrotation Yrotation
          JOINT Head
          {
            OFFSET 0 12.3537 3.3602
            CHANNELS 3 Zrotation Xrotation Yrotation
            End Site
            {
              OFFSET 0.0001 18.9506 0.5657
            }
          }
        }
        JOINT LeftShoulder
        {
          OFFSET 2.2086 21.1115 7.2329
          CHANNELS 3 Zrotation Xrotation Yrotation
          JOINT LeftArm
          {
            OFFSET 13.1193 3.0282 -4.8998
            CHANNELS 3 Zrotation Xrotation Yrotation
            JOINT LeftForeArm
            {
              OFFSET 27.4081 -0.0973053 -0.2375
              CHANNELS 3 Zrotation Xrotation Yrotation
              JOINT LeftHand
              {
                OFFSET 22.8641 0.0662994 -0.1369
                CHANNELS 3 Zrotation Xrotation Yrotation
                JOINT LeftHandIndex1
                {
                  OFFSET 8.8614 0.775009 2.4612
                  CHANNELS 3 Zrotation Xrotation Yrotation
                  JOINT LeftHandIndex2
                  {
                    OFFSET 3.3146 -0.808304 0.5841
                    CHANNELS 3 Zrotation Xrotation Yrotation
                    JOINT LeftHandIndex3
                    {
                      OFFSET 2.2628 -0.552002 0.3989
                      CHANNELS 3 Zrotation Xrotation Yrotation
                      End Site
                      {
                        OFFSET 1.6102 -0.4807 0.2612
                      }
                    }
                  }
                }
                JOINT LeftHandMiddle1
                {
                  OFFSET 8.9937 0.895004 0.2143
                  CHANNELS 3 Zrotation Xrotation Yrotation
                  JOINT LeftHandMiddle2
                  {
                    OFFSET 4.0984 0.0113983 -0.0242
                    CHANNELS 3 Zrotation Xrotation Yrotation
                    JOINT LeftHandMiddle3
                    {
                      OFFSET 2.2716 0.00689697 -0.0138001
                      CHANNELS 3 Zrotation Xrotation Yrotation
                      End Site
                      {
                        OFFSET 2.0404 -0.1441 0.0027
                      }
                    }
                  }
                }
                JOINT LeftHandRing1
                {
                  OFFSET 8.5234 0.597198 -2.0164
                  CHANNELS 3 Zrotation Xrotation Yrotation
                  JOINT LeftHandRing2
                  {
                    OFFSET 3.7188 -0.188293 -0.2328
                    CHANNELS 3 Zrotation Xrotation Yrotation
                    JOINT LeftHandRing3
                    {
                      OFFSET 2.1191 -0.106598 -0.1332
                      CHANNELS 3 Zrotation Xrotation Yrotation
                      End Site
                      {
                        OFFSET 1.8737 -0.2304 -0.0886
                      }
                    }
                  }
                }
                JOINT LeftHandPinky1
                {
                  OFFSET 7.9094 -0.601089 -3.4825
                  CHANNELS 3 Zrotation Xrotation Yrotation
                  JOINT LeftHandPinky2
                  {
                    OFFSET 2.2874 -0.477005 -0.6314
                    CHANNELS 3 Zrotation Xrotation Yrotation
                    JOINT LeftHandPinky3
                    {
                      OFFSET 1.6774 -0.349396 -0.4633
                      CHANNELS 3 Zrotation Xrotation Yrotation
                      End Site
                      {
                        OFFSET 1.4888 -0.4091 -0.3416
                      }
                    }
                  }
                }
                JOINT LeftHandThumb1
                {
                  OFFSET 1.833 -1.3875 1.3896
                  CHANNELS 3 Zrotation Xrotation Yrotation
                  JOINT LeftHandThumb2
                  {
                    OFFSET 3.4129 -1.121 2.5732
                    CHANNELS 3 Zrotation Xrotation Yrotation
                    JOINT LeftHandThumb3
                    {
                      OFFSET 2.2474 -0.804199 1.6192
                      CHANNELS 3 Zrotation Xrotation Yrotation
                      End Site
                      {
                        OFFSET 1.6527 -0.5689 1.1317
                      }
                    }
                  }
                }
              }
            }
          }
        }
        JOINT RightShoulder
        {
          OFFSET -2.2086 21.1115 7.2329
          CHANNELS 3 Zrotation Xrotation Yrotation
          JOINT RightArm
          {
            OFFSET -13.1216 3.0287 -4.9007
            CHANNELS 3 Zrotation Xrotation Yrotation
            JOINT RightForeArm
            {
              OFFSET -27.4081 -0.0973053 -0.2375
              CHANNELS 3 Zrotation Xrotation Yrotation
              JOINT RightHand
              {
                OFFSET -22.8641 0.0664063 -0.1369
                CHANNELS 3 Zrotation Xrotation Yrotation
                JOINT RightHandIndex1
                {
                  OFFSET -8.8614 0.774994 2.4612
                  CHANNELS 3 Zrotation Xrotation Yrotation
                  JOINT RightHandIndex2
                  {
                    OFFSET -3.3146 -0.808304 0.5841
                    CHANNELS 3 Zrotation Xrotation Yrotation
                    JOINT RightHandIndex3
                    {
                      OFFSET -2.2628 -0.552002 0.3989
                      CHANNELS 3 Zrotation Xrotation Yrotation
                      End Site
                      {
                        OFFSET -1.6102 -0.4807 0.2612
                      }
                    }
                  }
                }
                JOINT RightHandMiddle1
                {
                  OFFSET -8.9937 0.894989 0.2143
                  CHANNELS 3 Zrotation Xrotation Yrotation
                  JOINT RightHandMiddle2
                  {
                    OFFSET -4.0984 0.0113983 -0.0242
                    CHANNELS 3 Zrotation Xrotation Yrotation
                    JOINT RightHandMiddle3
                    {
                      OFFSET -2.2716 0.00691223 -0.0138001
                      CHANNELS 3 Zrotation Xrotation Yrotation
                      End Site
                      {
                        OFFSET -2.0404 -0.1441 0.0027
                      }
                    }
                  }
                }
                JOINT RightHandRing1
                {
                  OFFSET -8.5234 0.597198 -2.0164
                  CHANNELS 3 Zrotation Xrotation Yrotation
                  JOINT RightHandRing2
                  {
                    OFFSET -3.7188 -0.188309 -0.2328
                    CHANNELS 3 Zrotation Xrotation Yrotation
                    JOINT RightHandRing3
                    {
                      OFFSET -2.1191 -0.106598 -0.1332
                      CHANNELS 3 Zrotation Xrotation Yrotation
                      End Site
                      {
                        OFFSET -1.8737 -0.2304 -0.0886
                      }
                    }
                  }
                }
                JOINT RightHandPinky1
                {
                  OFFSET -7.9094 -0.601105 -3.4825
                  CHANNELS 3 Zrotation Xrotation Yrotation
                  JOINT RightHandPinky2
                  {
                    OFFSET -2.2874 -0.477005 -0.6314
                    CHANNELS 3 Zrotation Xrotation Yrotation
                    JOINT RightHandPinky3
                    {
                      OFFSET -1.6774 -0.349396 -0.4633
                      CHANNELS 3 Zrotation Xrotation Yrotation
                      End Site
                      {
                        OFFSET -1.4888 -0.4091 -0.3416
                      }
                    }
                  }
                }
                JOINT RightHandThumb1
                {
                  OFFSET -1.833 -1.38751 1.3896
                  CHANNELS 3 Zrotation Xrotation Yrotation
                  JOINT RightHandThumb2
                  {
                    OFFSET -3.41299 -1.12099 2.5732
                    CHANNELS 3 Zrotation Xrotation Yrotation
                    JOINT RightHandThumb3
                    {
                      OFFSET -2.24741 -0.804108 1.6192
                      CHANNELS 3 Zrotation Xrotation Yrotation
                      End Site
                      {
                        OFFSET -1.6527 -0.5689 1.1317
                      }
                    }
                  }
                }
              }
            }
          }
        }
      }
    }
  }
  JOINT RightUpLeg
  {
    OFFSET -9.1966 3.8861 -0.7581
    CHANNELS 3 Zrotation Xrotation Yrotation
    JOINT RightLeg
    {
      OFFSET -0.7359 -41.0265 0
      CHANNELS 3 Zrotation Xrotation Yrotation
      JOINT RightFoot
      {
        OFFSET 0 -40.2855 0
        CHANNELS 3 Zrotation Xrotation Yrotation
        JOINT RightToeBase
        {
          OFFSET 0 -5.6122 11.7359
          CHANNELS 3 Zrotation Xrotation Yrotation
          End Site
          {
            OFFSET 0 0 7.8731
          }
        }
      }
    }
  }
  JOINT LeftUpLeg
  {
    OFFSET 9.1965 3.8864 -0.7581
    CHANNELS 3 Zrotation Xrotation Yrotation
    JOINT LeftLeg
    {
      OFFSET 0.7359 -41.0268 0
      CHANNELS 3 Zrotation Xrotation Yrotation
      JOINT LeftFoot
      {
        OFFSET 0 -40.2855 0
        CHANNELS 3 Zrotation Xrotation Yrotation
        JOINT LeftToeBase
        {
          OFFSET 0 -5.6122 11.7359
          CHANNELS 3 Zrotation Xrotation Yrotation
          End Site
          {
            OFFSET 0 0 7.8731
          }
        }
      }
    }
  }
}
MOTION
Frames:	4
Frame Time:	0.0333333
-0.685905 4.46435 5.19922 -180 -85.9956 -180 -0.295157 2.29978 -0.186457 -0.583516 4.60047 -0.361479 -0.583517 4.60046 -0.36148 1.2749e-005 1.27281 5.04048e-006 -8.97381e-008 7.99914 -1.40966e-007 -4.39743 -20.5217 17.5533 91.7978 0.248908 -5.27603 1.73791 -0.872842 -4.58211 17.8986 -42.7858 29.6015 -4.61073e-007 3.25368e-006 -2.7789e-006 -3.01408e-006 1.38039e-006 -4.58864e-007 3.18055e-015 6.75868e-015 6.36111e-015 -4.61073e-007 3.25368e-006 -2.7789e-006 -0.0145895 -8.6303e-005 -2.29846e-006 -1.59028e-015 -3.57812e-015 -0 -4.61073e-007 3.25368e-006 -2.7789e-006 -0.0187522 -0.00116796 6.29628e-005 1.59028e-015 -2.38542e-015 -6.36111e-015 -4.61073e-007 3.25368e-006 -2.7789e-006 -0.0122543 -0.00324009 0.000674777 -7.95139e-015 -9.14409e-015 6.36111e-015 -4.61073e-007 3.25368e-006 -2.7789e-006 -3.01408e-006 1.38039e-006 -4.58864e-007 3.18055e-015 6.75868e-015 6.36111e-015 4.3 -20.4681 -17.7438 -91.8875 0.229911 5.27596 -1.7629 -0.863136 4.56808 -17.9398 -43.0419 -29.8129 8.93884e-007 1.12205e-006 8.37731e-007 -6.36111e-015 7.95139e-016 -6.36111e-015 1.82274e-006 2.32686e-007 -1.71051e-007 8.93884e-007 1.12205e-006 8.37731e-007 0.0150149 -9.64139e-005 2.53253e-008 8.93833e-007 1.12216e-006 8.37584e-007 8.93884e-007 1.12205e-006 8.37731e-007 0.018993 -0.00118628 -6.38728e-005 8.93827e-007 1.12219e-006 8.37536e-007 8.93884e-007 1.12205e-006 8.37731e-007 0.0122515 -0.0032428 -0.000674678 8.93859e-007 1.12216e-006 8.37588e-007 8.93884e-007 1.12205e-006 8.37731e-007 -6.36111e-015 7.95139e-016 -6.36111e-015 1.82274e-006 2.32686e-007 -1.71051e-007 -94.6781 -48.5252 -125.159 0.670384 14.3718 8.85715 -15.1406 12.1161 18.0976 3.10872e-006 4.21695e-007 5.59198e-007 94.6944 -48.6154 125.149 -0.645312 14.3392 -8.8797 14.9258 11.6356 -18.0303 -2.97623e-006 1.0821e-007 -1.32266e-006 
-0.685905 4.46438 5.20116 -180 -85.9956 -180 -0.295157 2.29978 -0.186457 -0.583516 4.60047 -0.361479 -0.583517 4.60046 -0.36148 1.22254e-005 1.04757 6.05627e-006 -1.36675e-007 7.99912 -2.7344e-007 -4.39743 -20.5217 17.5533 91.7978 0.248908 -5.27603 1.73791 -0.872842 -4.58211 17.8986 -42.7858 29.6015 -4.61073e-007 3.25368e-006 -2.7789e-006 -3.01408e-006 1.38039e-006 -4.58864e-007 8.82781e-032 -1.59028e-015 3.18055e-015 -4.61073e-007 3.25368e-006 -2.7789e-006 -0.0145895 -8.6303e-005 -2.29846e-006 1.59028e-015 3.18055e-015 -0 -4.61073e-007 3.25368e-006 -2.7789e-006 -0.018787 -0.00118162 5.6965e-005 1.59028e-015 -3.57812e-015 3.18055e-015 -4.61073e-007 3.25368e-006 -2.7789e-006 -0.012314 -0.0032556 0.000682808 -3.18055e-015 3.97569e-015 3.18055e-015 -4.61073e-007 3.25368e-006 -2.7789e-006 -3.01408e-006 1.38039e-006 -4.58864e-007 8.82781e-032 -1.59028e-015 3.18055e-015 4.3 -20.4681 -17.7438 -91.8875 0.229911 5.27596 -1.7629 -0.863136 4.56808 -17.9398 -43.0419 -29.8129 8.93884e-007 1.12205e-006 8.37731e-007 -7.95139e-015 -3.97569e-015 -9.54166e-015 1.82274e-006 2.32686e-007 -1.71051e-007 8.93884e-007 1.12205e-006 8.37731e-007 0.0150149 -9.64139e-005 2.53253e-008 8.93833e-007 1.12216e-006 8.37584e-007 8.93884e-007 1.12205e-006 8.37731e-007 0.0189836 -0.00118447 -5.73888e-005 8.93827e-007 1.12219e-006 8.37536e-007 8.93884e-007 1.12205e-006 8.37731e-007 0.0122515 -0.0032428 -0.000674678 8.93859e-007 1.12216e-006 8.37588e-007 8.93884e-007 1.12205e-006 8.37731e-007 -7.95139e-015 -3.97569e-015 -9.54166e-015 1.82274e-006 2.32686e-007 -1.71051e-007 -94.6576 -48.5344 -125.137 0.669555 14.0845 8.87016 -15.1378 12.1372 18.1001 2.6218e-006 1.3586e-006 2.72321e-006 94.6739 -48.6246 125.127 -0.64448 14.0518 -8.89262 14.9229 11.6567 -18.0328 -3.45357e-006 -8.34391e-007 8.55437e-007 
-0.685905 4.46441 5.20309 -180 -85.9956 -180 -0.295156 2.29978 -0.186457 -0.583516 4.60047 -0.361479 -0.583517 4.60046 -0.36148 2.25702e-005 0.822444 2.10432e-006 -4.24652e-008 7.99914 6.29194e-008 -4.39743 -20.5217 17.5533 91.7978 0.248909 -5.27603 1.7379 -0.872847 -4.5821 17.8986 -42.7858 29.6015 -1.73758e-006 2.31703e-006 -1.61888e-006 -8.68787e-007 1.15852e-006 -8.0944e-007 1.59028e-015 7.95139e-016 6.36111e-015 -1.73758e-006 2.31703e-006 -1.61888e-006 -0.0145968 -8.7342e-005 -1.25156e-006 -3.18055e-015 -1.19271e-015 -0 -1.73758e-006 2.31703e-006 -1.61888e-006 -0.0187369 -0.001169 6.05176e-005 1.59028e-015 -6.36111e-015 -0 -1.73758e-006 2.31703e-006 -1.61888e-006 -0.0122342 -0.00324482 0.000674409 -1.59028e-015 7.95139e-015 -3.18055e-015 -1.73758e-006 2.31703e-006 -1.61888e-006 -8.68787e-007 1.15852e-006 -8.0944e-007 1.59028e-015 7.95139e-016 6.36111e-015 4.3 -20.4681 -17.7438 -91.8875 0.229912 5.27596 -1.7629 -0.863136 4.56808 -17.9398 -43.0419 -29.8129 8.93884e-007 1.12205e-006 8.37731e-007 -6.36111e-015 -7.95139e-015 -1.27222e-014 1.82274e-006 2.32686e-007 -1.71052e-007 8.93884e-007 1.12205e-006 8.37731e-007 0.0150149 -9.64139e-005 2.53253e-008 8.93833e-007 1.12216e-006 8.37584e-007 8.93884e-007 1.12205e-006 8.37731e-007 0.018993 -0.00118628 -6.38728e-005 8.93827e-007 1.12219e-006 8.37536e-007 8.93884e-007 1.12205e-006 8.37731e-007 0.0122515 -0.0032428 -0.000674678 8.93859e-007 1.12216e-006 8.37588e-007 8.93884e-007 1.12205e-006 8.37731e-007 -6.36111e-015 -7.95139e-015 -1.27222e-014 1.82274e-006 2.32686e-007 -1.71052e-007 -94.6367 -48.5438 -125.115 0.668734 13.7964 8.88321 -15.1349 12.1586 18.1027 2.56144e-006 -8.16845e-007 3.65498e-006 94.6529 -48.6341 125.105 -0.643709 13.7636 -8.90558 14.92 11.6782 -18.0354 -7.13066e-006 2.91925e-006 7.84315e-007 
-0.685903 4.46444 5.20503 -180 -85.9956 -180 -0.295157 2.29978 -0.186457 -0.583516 4.60047 -0.361479 -0.583517 4.60046 -0.36148 1.42975e-005 0.597303 3.52914e-006 5.38407e-007 7.99912 2.00265e-008 -4.39743 -20.5217 17.5533 91.7978 0.248908 -5.27603 1.73791 -0.872842 -4.58211 17.8986 -42.7858 29.6015 -4.61073e-007 3.25368e-006 -2.7789e-006 -3.01408e-006 1.38039e-006 -4.58864e-007 1.59028e-015 0 3.18055e-015 -4.61073e-007 3.25368e-006 -2.7789e-006 -0.0145895 -8.6303e-005 -2.29846e-006 3.18055e-015 -2.78299e-015 6.36111e-015 -4.61073e-007 3.25368e-006 -2.7789e-006 -0.0187421 -0.00117653 5.97089e-005 3.18055e-015 0 -3.18055e-015 -4.61073e-007 3.25368e-006 -2.7789e-006 -0.0122543 -0.00324009 0.000674777 -7.95139e-015 -1.27222e-014 -0 -4.61073e-007 3.25368e-006 -2.7789e-006 -3.01408e-006 1.38039e-006 -4.58864e-007 1.59028e-015 0 3.18055e-015 4.3 -20.4681 -17.7438 -91.8875 0.229911 5.27596 -1.7629 -0.863136 4.56808 -17.9398 -43.0419 -29.8129 8.93884e-007 1.12205e-006 8.37731e-007 -6.36111e-015 -4.77083e-015 -9.54166e-015 1.82274e-006 2.32686e-007 -1.71051e-007 8.93884e-007 1.12205e-006 8.37731e-007 0.0150149 -9.64139e-005 2.53254e-008 8.93833e-007 1.12216e-006 8.37584e-007 8.93884e-007 1.12205e-006 8.37731e-007 0.018993 -0.00118628 -6.38728e-005 8.93827e-007 1.12219e-006 8.37536e-007 8.93884e-007 1.12205e-006 8.37731e-007 0.0122515 -0.0032428 -0.000674678 8.93859e-007 1.12216e-006 8.37588e-007 8.93884e-007 1.12205e-006 8.37731e-007 -6.36111e-015 -4.77083e-015 -9.54166e-015 1.82274e-006 2.32686e-007 -1.71051e-007 -94.6151 -48.5535 -125.092 0.667935 13.5073 8.89637 -15.1319 12.1806 18.1053 -1.35138e-007 -3.09937e-007 7.76983e-007 94.6315 -48.6436 125.082 -0.642917 13.475 -8.91856 14.9171 11.6999 -18.0379 -4.8831e-006 -2.38122e-007 -1.48602e-006 
